<?xml version="1.0" encoding="utf-8"?>
<!-- Generator: Adobe Illustrator 21.1.0, SVG Export Plug-In . SVG Version: 6.00 Build 0)  -->
<svg version="1.1" id="_x3C_Livello_x3E_" xmlns="http://www.w3.org/2000/svg" xmlns:xlink="http://www.w3.org/1999/xlink" x="0px"
	 y="0px" viewBox="0 0 842 595" style="enable-background:new 0 0 842 595;" xml:space="preserve">
<style type="text/css">
	.st0{fill-rule:evenodd;clip-rule:evenodd;fill:#F47730;}
</style>
<g>
	<g>
		<g>
			<path class="st0" d="M435.9,51c6.6,9.6,11.3,16.4,16.7,25.1C440.3,89,356.4,197.7,345.4,247.5c-1.8,8.1-7.8,27.3-5.8,74.5
				c-4.2-5-13.9-20.8-16.1-54.7c-2.3-35.9,21.1-88.2,33.6-106.3C364.7,147,416.7,71.7,435.9,51z"/>
		</g>
		<g>
			<path class="st0" d="M435.9,51c6.6,9.6,11.3,16.4,16.7,25.1C440.3,89,356.4,197.7,345.4,247.5c-1.8,8.1-7.8,27.3-5.8,74.5
				c-4.2-5-13.9-20.8-16.1-54.7c-2.3-35.9,21.1-88.2,33.6-106.3C364.7,147,416.7,71.7,435.9,51z"/>
		</g>
	</g>
	<g>
		<g>
			<path class="st0" d="M459.1,94.2c6.6,9.6,11.3,16.4,16.7,25.1c-12.3,12.9-96.2,121.6-107.2,171.4c-1.8,8.1-7.8,27.3-5.7,74.5
				c-4.1-5-13.9-20.8-16.1-54.7c-2.3-35.9,21.1-88.2,33.6-106.3C388,190.2,439.9,114.9,459.1,94.2z"/>
		</g>
		<g>
			<path class="st0" d="M459.1,94.2c6.6,9.6,11.3,16.4,16.7,25.1c-12.3,12.9-96.2,121.6-107.2,171.4c-1.8,8.1-7.8,27.3-5.7,74.5
				c-4.1-5-13.9-20.8-16.1-54.7c-2.3-35.9,21.1-88.2,33.6-106.3C388,190.2,439.9,114.9,459.1,94.2z"/>
		</g>
	</g>
	<g>
		<g>
			<path class="st0" d="M482.4,137.4c6.6,9.6,11.3,16.4,16.7,25.1c-12.3,12.9-96.2,121.6-107.2,171.4c-1.8,8.1-7.8,27.3-5.8,74.5
				c-4.2-5-13.9-20.8-16.1-54.7c-2.3-35.9,21.1-88.2,33.6-106.3C411.2,233.4,463.2,158,482.4,137.4z"/>
		</g>
		<g>
			<path class="st0" d="M482.4,137.4c6.6,9.6,11.3,16.4,16.7,25.1c-12.3,12.9-96.2,121.6-107.2,171.4c-1.8,8.1-7.8,27.3-5.8,74.5
				c-4.2-5-13.9-20.8-16.1-54.7c-2.3-35.9,21.1-88.2,33.6-106.3C411.2,233.4,463.2,158,482.4,137.4z"/>
		</g>
	</g>
	<g>
		<g>
			<path class="st0" d="M406.1,544c-6.6-9.6-11.3-16.4-16.7-25.1c12.3-12.9,96.2-121.6,107.2-171.4c1.8-8.1,7.8-27.3,5.7-74.5
				c4.2,5,13.9,20.8,16.1,54.7c2.3,35.9-21.1,88.2-33.6,106.3C477.3,448,425.3,523.3,406.1,544z"/>
		</g>
		<g>
			<path class="st0" d="M406.1,544c-6.6-9.6-11.3-16.4-16.7-25.1c12.3-12.9,96.2-121.6,107.2-171.4c1.8-8.1,7.8-27.3,5.7-74.5
				c4.2,5,13.9,20.8,16.1,54.7c2.3,35.9-21.1,88.2-33.6,106.3C477.3,448,425.3,523.3,406.1,544z"/>
		</g>
	</g>
	<g>
		<g>
			<path class="st0" d="M382.9,500.8c-6.6-9.6-11.3-16.4-16.7-25.1c12.3-12.9,96.2-121.6,107.2-171.4c1.8-8.1,7.8-27.3,5.7-74.5
				c4.1,5,13.9,20.8,16.1,54.7c2.3,35.9-21.1,88.2-33.6,106.3C454,404.8,402.1,480.1,382.9,500.8z"/>
		</g>
		<g>
			<path class="st0" d="M382.9,500.8c-6.6-9.6-11.3-16.4-16.7-25.1c12.3-12.9,96.2-121.6,107.2-171.4c1.8-8.1,7.8-27.3,5.7-74.5
				c4.1,5,13.9,20.8,16.1,54.7c2.3,35.9-21.1,88.2-33.6,106.3C454,404.8,402.1,480.1,382.9,500.8z"/>
		</g>
	</g>
	<g>
		<g>
			<path class="st0" d="M359.6,457.6c-6.6-9.6-11.3-16.4-16.7-25.1c12.3-12.9,96.2-121.6,107.2-171.4c1.8-8.1,7.8-27.3,5.7-74.5
				c4.2,5,13.9,20.8,16.1,54.7c2.3,35.9-21.1,88.2-33.6,106.3C430.8,361.6,378.8,437,359.6,457.6z"/>
		</g>
		<g>
			<path class="st0" d="M359.6,457.6c-6.6-9.6-11.3-16.4-16.7-25.1c12.3-12.9,96.2-121.6,107.2-171.4c1.8-8.1,7.8-27.3,5.7-74.5
				c4.2,5,13.9,20.8,16.1,54.7c2.3,35.9-21.1,88.2-33.6,106.3C430.8,361.6,378.8,437,359.6,457.6z"/>
		</g>
	</g>
</g>
</svg>
